<?xml version="1.0" encoding="utf-8"?>
<!-- Generator: Adobe Illustrator 16.0.0, SVG Export Plug-In . SVG Version: 6.00 Build 0)  -->
<!DOCTYPE svg PUBLIC "-//W3C//DTD SVG 1.1//EN" "http://www.w3.org/Graphics/SVG/1.1/DTD/svg11.dtd">
<svg version="1.1" id="Layer_1" xmlns="http://www.w3.org/2000/svg" xmlns:xlink="http://www.w3.org/1999/xlink" x="0px" y="0px"
	 width="128px" height="128px" viewBox="0 0 128 128" enable-background="new 0 0 128 128" xml:space="preserve">
<g>
	<g>
		<g>
			<rect id="Rectangle_8_" x="-0.032" y="0.016" fill="#FF0000" width="128" height="128"/>
		</g>
	</g>
</g>
<g>
	<g>
		<path fill-rule="evenodd" clip-rule="evenodd" fill="#FFFFFF" d="M114.377,27.057c-0.018-8.978-5.989-14.873-15.016-14.888
			c-11.755-0.02-23.509-0.005-35.264-0.005c-11.933,0-23.864-0.02-35.795,0.007c-8.834,0.02-14.74,5.967-14.75,14.853
			c-0.021,16.969-0.021,33.938,0,50.907c0.011,8.874,5.927,14.84,14.759,14.848c23.775,0.023,47.551,0.023,71.325,0
			c8.911-0.008,14.726-5.85,14.741-14.814C114.408,60.995,114.409,44.026,114.377,27.057z M43.805,85.344
			c-5.213,0.034-10.426,0.046-15.639,0.009c-4.733-0.035-7.422-2.77-7.201-7.48c0.046-0.993,0.61-2.21,1.34-2.886
			c5.837-5.398,11.752-10.712,17.681-16.012c3.538-3.161,6.612-3.156,10.088-0.026c4.726,4.254,9.417,8.547,14.487,13.153
			c-6.332,4.411-12.383,8.661-18.49,12.832C45.491,85.331,44.57,85.339,43.805,85.344z M100.578,85.323
			c-13.771,0.059-27.54,0.026-41.804,0.026c0.796-0.706,1.235-1.177,1.75-1.539c6.927-4.88,13.856-9.757,20.802-14.609
			c3.554-2.481,5.905-2.448,9.411,0.122c5.253,3.851,10.482,7.732,15.842,11.69C105.194,83.808,103.279,85.312,100.578,85.323z
			 M106.956,70.228c0,0.436-0.052,0.871-0.115,1.842c-4.16-3.042-7.913-5.803-11.682-8.542c-6.206-4.509-11.985-4.534-18.311-0.102
			c-2.012,1.409-4.024,2.818-6.142,4.301c-4.994-4.508-9.84-8.878-14.681-13.252c-7.614-6.882-14.375-6.903-21.96-0.074
			c-4.193,3.773-8.398,7.534-12.951,11.617c-0.091-1.126-0.202-1.853-0.202-2.579c-0.01-12.102-0.019-24.204-0.002-36.306
			c0.007-4.983,2.521-7.532,7.461-7.535c23.763-0.015,47.527-0.015,71.291,0.001c4.654,0.003,7.276,2.572,7.285,7.168
			C106.977,41.254,106.959,55.74,106.956,70.228z"/>
		<path fill-rule="evenodd" clip-rule="evenodd" fill="#FFFFFF" d="M73.464,29.862c-6.438,0.044-11.75,5.478-11.643,11.912
			c0.107,6.377,5.362,11.436,11.819,11.379c6.396-0.057,11.546-5.289,11.509-11.691C85.112,35.158,79.733,29.819,73.464,29.862z
			 M73.372,45.716c-2.396-0.051-4.143-1.803-4.182-4.197c-0.042-2.487,1.803-4.397,4.261-4.414c2.457-0.016,4.335,1.88,4.319,4.361
			C77.753,43.967,75.888,45.769,73.372,45.716z"/>
	</g>
</g>
<path fill="#FFFFFF" d="M113.277,106.723c0,5.031-4.079,9.11-9.111,9.11h-81.52c-5.032,0-9.11-4.079-9.11-9.11l0,0
	c0-5.032,4.079-9.111,9.11-9.111h81.52C109.198,97.611,113.277,101.69,113.277,106.723L113.277,106.723z"/>
<text transform="matrix(1 0 0 1 20.9185 110.0127)" fill="#FF0000" font-family="'Impact'" font-size="9">RB Thumbnail Columns</text>
</svg>
